<svg width="177" height="174" xmlns="http://www.w3.org/2000/svg" xmlns:xlink="http://www.w3.org/1999/xlink"><defs><path d="M4.488 58.62V0H58.62v46.279c0 25.056-2.899 43.1-8.695 54.132-8.04 15.146-20.568 26.552-37.584 34.218L0 114.715c10.097-4.114 17.623-10.611 22.578-19.493 4.956-8.882 7.714-21.083 8.274-36.602H4.488zm79 0V0h54.132v46.279c0 25.056-2.899 43.1-8.695 54.132-8.04 15.146-20.568 26.552-37.584 34.218L79 114.715c10.097-4.114 17.623-10.611 22.578-19.493 4.956-8.882 7.714-21.083 8.274-36.602H83.488z" id="b"/><filter x="-21.8%" y="-26%" width="148%" height="149%" filterUnits="objectBoundingBox" id="a"><feOffset dx="3" dy="-2" in="SourceAlpha" result="shadowOffsetOuter1"/><feGaussianBlur stdDeviation="10.5" in="shadowOffsetOuter1" result="shadowBlurOuter1"/><feColorMatrix values="0 0 0 0 0.765359269 0 0 0 0 0.765359269 0 0 0 0 0.765359269 0 0 0 0.424564085 0" in="shadowBlurOuter1"/></filter></defs><g transform="matrix(1 0 0 -1 16 151.629)" fill="none" fill-rule="evenodd"><use fill="#000" filter="url(#a)" xlink:href="#b"/><use fill="#FFF" xlink:href="#b"/></g></svg>